<svg width="450" height="450" viewBox="0 0 450 450" fill="none" xmlns="http://www.w3.org/2000/svg">
<rect width="450" height="450" rx="225" fill="white"/>
<circle cx="224.499" cy="214.433" r="47.4444" stroke="url(#paint0_linear_6_14)" stroke-width="25"/>
<rect x="206.055" y="255.011" width="36.8889" height="60.8667" rx="18.4444" fill="#1FA971"/>
<path fill-rule="evenodd" clip-rule="evenodd" d="M224.5 18C246.367 18 267.445 21.3826 287.237 27.6531L273.545 49.6654C257.939 45.3218 241.49 43 224.5 43C123.708 43 42 124.708 42 225.5C42 304.495 92.1898 371.768 162.421 397.17L148.241 418.538C71.3748 388.148 17 313.174 17 225.5C17 110.901 109.901 18 224.5 18ZM163.505 423.89C182.791 429.813 203.273 433 224.5 433C339.099 433 432 340.099 432 225.5C432 138.421 378.361 63.8706 302.321 33.0865L288.887 54.6826C357.907 80.7118 407 147.373 407 225.5C407 326.292 325.292 408 224.5 408C208.435 408 192.855 405.924 178.014 402.027L163.505 423.89Z" fill="url(#paint1_linear_6_14)"/>
<circle cx="330.555" cy="309.422" r="19.7778" stroke="#3E4DF2" stroke-width="25"/>
<circle cx="117.062" cy="139.739" r="19.7778" transform="rotate(179.989 117.062 139.739)" stroke="url(#paint2_linear_6_14)" stroke-width="25"/>
<circle cx="117.062" cy="139.739" r="19.7778" transform="rotate(179.989 117.062 139.739)" stroke="#040584" stroke-width="25"/>
<path d="M139.195 410.867L153.95 389.194C159.945 378.128 159.483 371.672 153.95 361.067C149.523 352.582 100.154 271.919 75.0999 229.65C73.4091 226.73 71.0421 219.044 75.0999 211.667C79.1577 204.289 96.1574 176.007 104.15 162.789" stroke="url(#paint3_linear_6_14)" stroke-width="25"/>
<path d="M312.112 39.2111L298.228 61.4154C292.043 72.3765 292.392 78.839 297.74 89.539C302.019 98.0989 349.983 179.607 374.3 222.303C375.94 225.252 378.173 232.977 373.988 240.284C369.803 247.59 352.316 275.573 344.095 288.65" stroke="url(#paint4_linear_6_14)" stroke-width="25"/>
<defs>
<linearGradient id="paint0_linear_6_14" x1="224.499" y1="154.489" x2="224.499" y2="274.378" gradientUnits="userSpaceOnUse">
<stop stop-color="#0097A8"/>
<stop offset="1" stop-color="#1FA971"/>
</linearGradient>
<linearGradient id="paint1_linear_6_14" x1="224.5" y1="18" x2="224.5" y2="433" gradientUnits="userSpaceOnUse">
<stop stop-color="#040584"/>
<stop offset="1" stop-color="#3E4DF2"/>
</linearGradient>
<linearGradient id="paint2_linear_6_14" x1="117.062" y1="107.462" x2="117.062" y2="172.017" gradientUnits="userSpaceOnUse">
<stop stop-color="#040584"/>
<stop offset="1" stop-color="#3E4DF2"/>
</linearGradient>
<linearGradient id="paint3_linear_6_14" x1="115.567" y1="162.789" x2="115.567" y2="415.939" gradientUnits="userSpaceOnUse">
<stop stop-color="#040584"/>
<stop offset="1" stop-color="#3E4DF2"/>
</linearGradient>
<linearGradient id="paint4_linear_6_14" x1="332.68" y1="288.452" x2="337.069" y2="35.3405" gradientUnits="userSpaceOnUse">
<stop stop-color="#3E4DF2"/>
<stop offset="1" stop-color="#040584"/>
</linearGradient>
</defs>
</svg>
